<?xml version="1.0" standalone="no"?>
<!DOCTYPE svg PUBLIC "-//W3C//DTD SVG 20010904//EN"
 "http://www.w3.org/TR/2001/REC-SVG-20010904/DTD/svg10.dtd">
<svg version="1.0" xmlns="http://www.w3.org/2000/svg"
 width="354.000000pt" height="100.000000pt" viewBox="0 0 354.000000 100.000000"
 preserveAspectRatio="xMidYMid meet">

<g transform="translate(0.000000,100.000000) scale(0.100000,-0.100000)"
fill="#000000" stroke="none">
<path d="M400 865 c0 -22 4 -30 13 -27 5 1 6 -2 2 -8 -3 -6 -11 -7 -17 -4 -7
5 -9 2 -6 -8 6 -14 -25 -51 -35 -42 -2 3 -17 0 -32 -6 -25 -10 -32 -7 -59 19
l-31 30 -42 -32 c-47 -36 -53 -55 -23 -82 23 -21 23 -53 0 -73 -8 -8 -10 -11
-3 -8 6 4 15 1 19 -5 4 -8 3 -9 -4 -5 -6 4 -19 -2 -28 -12 -13 -16 -23 -18
-50 -12 -22 5 -37 4 -43 -4 -13 -16 -26 -116 -15 -117 31 -2 67 -9 71 -12 2
-3 7 -20 10 -38 2 -18 9 -42 13 -55 10 -26 4 -35 -18 -27 -10 4 -13 2 -8 -6 4
-6 4 -10 -1 -9 -4 1 -18 -1 -29 -5 l-22 -8 21 -39 c12 -21 26 -36 31 -33 5 4
6 2 3 -3 -3 -6 -2 -16 3 -24 7 -11 11 -11 24 -1 9 8 16 10 16 5 0 -4 5 -3 12
4 18 18 41 14 70 -13 15 -14 31 -25 35 -25 5 0 9 -9 10 -20 1 -11 -3 -18 -8
-14 -5 3 -9 2 -8 -3 1 -4 0 -10 -1 -13 -17 -45 11 -55 30 -10 7 16 11 32 10
36 -1 4 3 10 10 14 6 4 12 13 13 21 2 8 6 20 11 27 9 15 -53 74 -68 64 -5 -3
-6 0 -3 5 4 6 1 16 -7 22 -28 24 -57 110 -54 164 2 44 26 141 27 113 1 -15 30
27 31 43 0 11 -3 11 -17 0 -16 -12 -15 -11 0 8 11 12 16 28 12 35 -3 7 1 4 10
-7 13 -16 18 -17 33 -7 9 7 32 19 50 27 17 9 32 22 32 31 0 8 5 12 10 9 6 -3
10 -3 10 2 0 4 16 25 35 46 18 20 31 37 28 37 -3 0 2 9 12 20 35 39 28 50 -31
50 -41 0 -54 -4 -54 -15z"/>
<path d="M670 811 c0 -4 -14 -21 -31 -39 -17 -17 -28 -36 -24 -42 3 -5 -1 -13
-9 -16 -9 -3 -13 -10 -10 -15 3 -5 0 -9 -6 -9 -6 0 9 -20 34 -44 25 -24 46
-49 46 -55 0 -7 5 -9 12 -5 7 5 8 3 3 -6 -4 -7 -2 -16 6 -21 10 -6 14 -31 14
-91 0 -71 -4 -88 -23 -116 -13 -17 -20 -37 -16 -43 4 -7 3 -9 -3 -6 -6 4 -21
-5 -34 -20 -13 -14 -19 -24 -14 -20 6 3 17 1 25 -4 11 -7 6 -8 -16 -4 -22 3
-37 -1 -53 -16 -12 -12 -25 -18 -28 -15 -9 8 -53 -34 -53 -51 0 -7 -6 -12 -12
-11 -8 2 -12 -5 -10 -16 2 -11 -1 -15 -7 -11 -6 3 -11 1 -11 -4 0 -6 14 -9 33
-7 32 4 34 3 45 -41 13 -46 13 -46 34 -27 12 11 18 13 14 6 -6 -9 3 -8 25 4
19 10 37 17 42 16 7 -2 11 15 7 33 -12 54 -10 59 24 90 20 18 33 35 28 40 -4
4 5 0 21 -10 15 -9 27 -14 27 -9 0 4 6 -1 14 -11 14 -19 15 -19 35 -1 12 11
21 27 21 38 0 10 5 18 11 18 5 0 8 4 4 9 -3 6 3 14 12 20 11 6 13 11 5 11 -7
0 -18 5 -25 10 -7 6 -20 16 -29 23 -15 11 -15 18 -4 66 11 50 14 54 45 56 17
2 35 5 38 8 3 4 1 32 -3 64 -10 62 -13 64 -72 49 -15 -3 -25 0 -29 9 -3 8 -10
12 -16 8 -6 -3 -7 -1 -3 5 4 6 0 22 -8 34 -19 31 -24 62 -9 63 7 0 19 9 27 20
13 18 11 22 -27 54 -39 34 -67 47 -67 32z m45 -21 c10 -11 16 -20 13 -20 -3 0
-13 9 -23 20 -10 11 -16 20 -13 20 3 0 13 -9 23 -20z"/>
<path d="M1040 653 c-26 -11 -60 -49 -64 -74 -3 -13 -5 -24 -6 -24 -1 0 -3 -8
-5 -17 -2 -10 0 -18 5 -18 4 0 6 -8 3 -18 -5 -20 51 -91 63 -80 3 4 13 0 22
-9 18 -18 80 -12 94 9 4 7 8 9 8 4 0 -5 11 1 25 14 33 31 32 37 -7 36 -18 -1
-32 -6 -31 -11 1 -6 -18 -11 -45 -10 -41 0 -49 4 -68 33 -18 26 -21 39 -14 64
5 17 7 36 3 42 -3 6 -3 8 2 4 4 -4 17 -1 29 7 26 19 60 19 75 2 12 -15 68 -21
75 -8 3 4 -6 18 -21 31 -26 22 -111 36 -143 23z"/>
<path d="M1361 646 c-12 -7 -18 -15 -15 -19 4 -4 2 -7 -5 -7 -7 0 -9 -5 -5
-12 4 -7 3 -8 -4 -4 -30 18 -37 -74 -10 -135 12 -29 26 -40 63 -55 35 -13 51
-15 64 -7 9 6 15 16 14 22 -2 6 4 8 13 4 13 -5 13 -7 2 -14 -7 -5 -8 -9 -3 -9
16 0 51 32 71 65 14 22 15 27 4 20 -12 -7 -13 -6 -4 6 25 31 5 109 -34 135
-32 21 -119 27 -151 10z m116 -40 c-1 -6 3 -10 9 -9 6 1 11 -3 12 -10 1 -7 3
-29 6 -49 2 -21 0 -40 -5 -43 -5 -4 -9 -12 -9 -18 0 -7 4 -6 11 3 7 10 9 11 7
2 -2 -8 -8 -14 -13 -14 -6 0 -21 -4 -34 -9 -13 -5 -38 -7 -56 -3 -27 5 -34 12
-44 46 -10 31 -10 47 -1 69 7 16 17 29 22 29 5 0 7 4 4 8 -2 4 17 8 44 8 28 0
48 -4 47 -10z"/>
<path d="M1665 648 c-2 -7 -3 -65 -2 -128 2 -108 3 -115 22 -115 18 0 20 8 23
82 2 61 6 83 18 87 9 3 12 1 9 -4 -3 -6 -1 -10 5 -10 6 0 8 -4 5 -10 -3 -5 7
-22 22 -37 15 -14 22 -23 14 -18 -9 5 -7 -1 4 -19 9 -14 21 -23 26 -20 5 3 6
-1 3 -9 -6 -17 13 -34 46 -39 l25 -3 2 110 c1 61 0 117 -2 125 -3 8 -16 16
-30 16 -22 2 -24 0 -13 -14 8 -9 8 -13 2 -9 -8 5 -12 -13 -12 -59 0 -36 -3
-68 -6 -71 -3 -3 -23 23 -46 58 -22 35 -46 67 -53 71 -7 4 -7 8 -2 8 17 1 -19
20 -38 20 -10 0 -20 -6 -22 -12z"/>
<path d="M2022 543 c22 -65 44 -122 48 -126 11 -13 60 -16 60 -4 0 6 3 7 7 3
8 -8 93 225 86 237 -2 4 -14 7 -27 7 -20 0 -26 -10 -45 -75 -34 -119 -39 -128
-55 -113 -7 7 -12 18 -9 24 2 7 -1 15 -6 19 -6 3 -9 11 -6 16 4 5 1 9 -5 9 -6
0 -9 4 -6 8 7 12 -15 82 -27 82 -5 0 -7 7 -3 15 4 11 -2 15 -23 15 l-29 0 40
-117z"/>
<path d="M2329 653 c-1 -5 -2 -61 -3 -125 l-1 -118 35 -1 c36 -2 72 -2 102 0
39 2 10 26 -36 31 -48 5 -49 6 -50 38 -1 39 2 42 47 44 21 1 34 6 34 15 0 13
-32 26 -53 22 -24 -4 -30 3 -26 36 2 19 7 34 11 33 3 0 24 0 47 1 29 1 41 5
41 16 0 12 -15 15 -74 15 -40 0 -74 -3 -74 -7z"/>
<path d="M2592 531 c3 -118 4 -126 23 -126 21 0 22 2 24 65 1 45 16 52 32 16
7 -14 17 -22 25 -19 8 3 11 -2 8 -14 -6 -23 12 -40 48 -47 25 -4 26 -3 16 20
-12 26 -23 31 -32 12 -3 -7 -3 -1 0 13 3 15 1 30 -5 33 -14 9 -14 36 0 36 31
0 63 70 39 85 -6 4 -8 11 -5 16 4 5 -1 9 -10 9 -10 0 -13 5 -9 12 4 7 3 8 -4
4 -7 -4 -12 -3 -12 2 0 5 -32 9 -70 9 l-71 0 3 -126z m128 49 c-4 -16 -7 -30
-5 -32 2 -2 -8 -3 -23 -2 -15 1 -33 3 -39 3 -8 1 -13 15 -13 35 0 39 17 48 62
33 23 -7 25 -12 18 -37z"/>
<path d="M2870 642 c0 -16 6 -19 31 -17 17 2 32 -2 34 -9 3 -6 6 -56 7 -110 3
-86 5 -99 21 -102 22 -3 26 17 30 131 1 63 6 90 15 91 6 1 23 2 37 3 16 1 23
6 19 15 -4 10 -30 14 -100 15 -87 2 -94 0 -94 -17z"/>
<path d="M3165 648 c-2 -7 -3 -65 -2 -128 2 -115 2 -115 27 -115 l24 0 -3 95
c-1 52 -5 99 -8 104 -4 5 -2 6 4 3 6 -4 10 6 11 23 1 25 -3 30 -24 30 -14 0
-27 -6 -29 -12z"/>
<path d="M3331 530 l-2 -130 23 9 c19 7 23 16 23 52 1 28 5 44 13 43 26 -2 32
-4 30 -11 -3 -16 15 -43 25 -36 6 4 7 1 3 -6 -12 -20 21 -49 49 -43 l25 4 -20
28 c-11 16 -20 33 -20 38 0 6 -5 14 -12 18 -7 5 -8 3 -3 -6 5 -9 4 -11 -3 -6
-9 5 -8 12 0 26 7 11 14 17 17 15 2 -3 13 2 23 12 17 16 17 17 1 37 -16 18
-16 19 -1 8 15 -12 17 -11 15 10 -2 45 -38 66 -115 66 l-70 1 -1 -129z m117
91 c6 -1 12 -8 12 -16 0 -8 5 -15 12 -15 6 0 4 -7 -5 -18 -10 -10 -15 -21 -13
-23 3 -2 -12 -4 -32 -4 -30 0 -37 4 -42 25 -9 35 4 57 32 54 13 -1 29 -3 36
-3z"/>
</g>
</svg>
